<svg width="111" height="42" viewBox="0 0 111 42" fill="none" xmlns="http://www.w3.org/2000/svg">
<path d="M101 29.2443C101 28.8976 101.129 28.6067 101.388 28.3714C101.659 28.1238 101.986 28 102.368 28H110.63C110.63 28.8171 110.495 29.4114 110.224 29.7829C109.953 30.1543 109.515 30.34 108.911 30.34H103.717V33.2743H108.56C108.56 34.0914 108.425 34.6857 108.153 35.0571C107.882 35.4286 107.445 35.6143 106.841 35.6143H103.717V38.66H109.299C109.891 38.66 110.322 38.8457 110.593 39.2171C110.864 39.5886 111 40.1829 111 41H102.368C101.986 41 101.659 40.8824 101.388 40.6471C101.129 40.4119 101 40.1148 101 39.7557V29.2443Z" fill="white"/>
<path d="M93.5626 41C92.4894 41 91.5295 40.7888 90.6829 40.3663C89.8363 39.9438 89.1745 39.3584 88.6976 38.61C88.2325 37.8496 88 36.9865 88 36.0209V32.9429C88 31.9773 88.2266 31.1202 88.6797 30.3719C89.1447 29.6235 89.7886 29.0441 90.6114 28.6337C91.4461 28.2112 92.394 28 93.4553 28C94.5165 28 95.4645 28.163 96.2992 28.4889C97.1339 28.8027 97.7778 29.2433 98.2309 29.8106C98.6959 30.3779 98.9285 31.0297 98.9285 31.766C98.9285 32.2368 98.7734 32.611 98.4634 32.8886C98.1534 33.1541 97.7301 33.2869 97.1935 33.2869C96.8835 33.2869 96.5794 33.2447 96.2813 33.1602C96.3171 32.9067 96.335 32.6049 96.335 32.2549C96.335 31.6755 96.0667 31.2047 95.5301 30.8426C94.9935 30.4684 94.3019 30.2813 93.4553 30.2813C92.6206 30.2813 91.9409 30.5288 91.4163 31.0237C90.8916 31.5186 90.6293 32.1583 90.6293 32.9429V36.0209C90.6293 36.8175 90.8976 37.4694 91.4342 37.9763C91.9827 38.4712 92.6921 38.7187 93.5626 38.7187C94.3973 38.7187 95.077 38.5255 95.6016 38.1393C96.1263 37.753 96.3886 37.2581 96.3886 36.6546V36.2382H95.0829C94.594 36.2382 94.1946 36.045 93.8846 35.6588C93.5864 35.2725 93.4374 34.7716 93.4374 34.156H97.7837C98.1415 34.156 98.4336 34.2707 98.6602 34.5C98.8867 34.7173 99 35.007 99 35.3691V36.7089C99 37.5418 98.7675 38.2841 98.3024 38.9359C97.8493 39.5877 97.2114 40.0947 96.3886 40.4568C95.5659 40.8189 94.6239 41 93.5626 41Z" fill="white"/>
<path d="M75 29.2285C75 28.874 75.1351 28.5806 75.4053 28.3484C75.6883 28.1161 76.0292 28 76.4281 28H81.5035C82.9444 28 84.0509 28.3545 84.8228 29.0635C85.6076 29.7602 86 30.7565 86 32.0522C86 32.7734 85.8456 33.3785 85.5368 33.8674C85.2409 34.3564 84.7778 34.7414 84.1474 35.0226V35.0959C85.2667 35.5726 85.8263 36.4711 85.8263 37.7913V39.0564C85.8263 39.6921 85.5819 40.1749 85.093 40.5049C84.617 40.835 83.9158 41 82.9895 41V37.8829C82.9895 37.2717 82.8608 36.8256 82.6035 36.5444C82.3591 36.2511 81.9795 36.1044 81.4649 36.1044H77.7982V39.0564C77.7982 39.6921 77.5602 40.1749 77.0842 40.5049C76.6082 40.835 75.9135 41 75 41V29.2285ZM81.3491 33.8124C81.9409 33.8124 82.3912 33.6596 82.7 33.354C83.0088 33.0484 83.1632 32.6084 83.1632 32.0339C83.1632 31.4349 83.0152 30.9948 82.7193 30.7137C82.4363 30.4325 81.9795 30.292 81.3491 30.292H77.7982V33.8124H81.3491Z" fill="white"/>
<path d="M63 29.2443C63 28.8976 63.1423 28.6067 63.427 28.3714C63.7252 28.1238 64.0844 28 64.5046 28H73.5933C73.5933 28.8171 73.4442 29.4114 73.146 29.7829C72.8478 30.1543 72.3666 30.34 71.7024 30.34H65.9889V33.2743H71.3161C71.3161 34.0914 71.167 34.6857 70.8688 35.0571C70.5705 35.4286 70.0893 35.6143 69.4251 35.6143H65.9889V38.66H72.1294C72.78 38.66 73.2545 38.8457 73.5527 39.2171C73.8509 39.5886 74 40.1829 74 41H64.5046C64.0844 41 63.7252 40.8824 63.427 40.6471C63.1423 40.4119 63 40.1148 63 39.7557V29.2443Z" fill="white"/>
<path d="M38 29.2443C38 28.8976 38.1423 28.6067 38.427 28.3714C38.7252 28.1238 39.0844 28 39.5046 28H48.5933C48.5933 28.8171 48.4442 29.4114 48.146 29.7829C47.8478 30.1543 47.3666 30.34 46.7024 30.34H40.9889V33.2743H46.3161C46.3161 34.0914 46.167 34.6857 45.8688 35.0571C45.5705 35.4286 45.0893 35.6143 44.4251 35.6143H40.9889V38.66H47.1294C47.78 38.66 48.2545 38.8457 48.5527 39.2171C48.8509 39.5886 49 40.1829 49 41H39.5046C39.0844 41 38.7252 40.8824 38.427 40.6471C38.1423 40.4119 38 40.1148 38 39.7557V29.2443Z" fill="white"/>
<path d="M27.3635 41C26.9827 41 26.6572 40.8824 26.3869 40.6471C26.129 40.4119 26 40.1148 26 39.7557V29.2443C26 28.8852 26.129 28.5881 26.3869 28.3529C26.6572 28.1176 26.9827 28 27.3635 28H31.3802C32.4858 28 33.4623 28.2167 34.3099 28.65C35.1575 29.071 35.8146 29.6714 36.2814 30.4514C36.7605 31.2314 37 32.1229 37 33.1257V35.8371C37 36.84 36.7605 37.7376 36.2814 38.53C35.8146 39.31 35.1513 39.9167 34.2915 40.35C33.4439 40.7833 32.4735 41 31.3802 41H27.3635ZM31.196 38.66C32.2155 38.66 32.9833 38.4248 33.4992 37.9543C34.0274 37.4838 34.2915 36.7905 34.2915 35.8743V33.0886C34.2915 32.1848 34.0274 31.5038 33.4992 31.0457C32.9833 30.5752 32.2155 30.34 31.196 30.34H28.7085V38.66H31.196Z" fill="white"/>
<path d="M18 41C16.9103 41 15.907 40.8069 14.99 40.4206C14.0731 40.0223 13.3422 39.4912 12.7973 38.8273C12.2658 38.1513 12 37.4271 12 36.6546V32.3454C12 31.5729 12.2658 30.8547 12.7973 30.1908C13.3422 29.5149 14.0731 28.9838 14.99 28.5975C15.907 28.1992 16.9103 28 18 28C19.0897 28 20.093 28.1992 21.01 28.5975C21.9269 28.9838 22.6512 29.5149 23.1827 30.1908C23.7276 30.8547 24 31.5729 24 32.3454V36.6546C24 37.4271 23.7276 38.1513 23.1827 38.8273C22.6512 39.4912 21.9269 40.0223 21.01 40.4206C20.093 40.8069 19.0897 41 18 41ZM18 38.6825C18.9037 38.6825 19.6412 38.4893 20.2126 38.1031C20.7841 37.7168 21.0698 37.2159 21.0698 36.6003V32.3997C21.0698 31.7841 20.7841 31.2832 20.2126 30.8969C19.6412 30.5107 18.9037 30.3175 18 30.3175C17.0963 30.3175 16.3588 30.5107 15.7874 30.8969C15.2159 31.2832 14.9302 31.7841 14.9302 32.3997V36.6003C14.9302 37.2159 15.2159 37.7168 15.7874 38.1031C16.3588 38.4893 17.0963 38.6825 18 38.6825Z" fill="white"/>
<path d="M5.55357 41C4.48214 41 3.52381 40.7888 2.67857 40.3663C1.83333 39.9438 1.17262 39.3584 0.696429 38.61C0.232143 37.8496 0 36.9865 0 36.0209V32.9429C0 31.9773 0.226191 31.1202 0.678572 30.3719C1.14286 29.6235 1.78571 29.0441 2.60714 28.6337C3.44048 28.2112 4.38691 28 5.44643 28C6.50595 28 7.45238 28.163 8.28571 28.4889C9.11905 28.8027 9.7619 29.2493 10.2143 29.8287C10.6786 30.4081 10.9107 31.0659 10.9107 31.8022C10.9107 32.2851 10.756 32.6653 10.4464 32.9429C10.1369 33.2085 9.71429 33.3412 9.17857 33.3412C8.86905 33.3412 8.56548 33.299 8.26786 33.2145C8.30357 32.961 8.32143 32.6532 8.32143 32.2911C8.32143 31.7117 8.05357 31.2409 7.51786 30.8788C6.98214 30.5046 6.29167 30.3175 5.44643 30.3175C4.6131 30.3175 3.93452 30.565 3.41071 31.0599C2.88691 31.5427 2.625 32.1704 2.625 32.9429V36.0209C2.625 36.8055 2.89286 37.4452 3.42857 37.9401C3.97619 38.435 4.68452 38.6825 5.55357 38.6825C6.39881 38.6825 7.08333 38.5014 7.60714 38.1393C8.14286 37.7772 8.41072 37.3064 8.41072 36.727C8.41072 36.3287 8.39286 36.039 8.35714 35.8579C8.67857 35.7855 8.97024 35.7493 9.23214 35.7493C9.76786 35.7493 10.1964 35.8881 10.5179 36.1657C10.8393 36.4434 11 36.8236 11 37.3064C11 38.0186 10.7679 38.6583 10.3036 39.2256C9.85119 39.7809 9.20833 40.2154 8.375 40.5293C7.55357 40.8431 6.6131 41 5.55357 41Z" fill="white"/>
<path d="M49.6101 27.8347V27.8347C50.8258 27.3635 52.1932 27.9669 52.6645 29.1825L56.811 39.8786C57.0466 40.4864 56.7449 41.1702 56.1371 41.4058V41.4058C55.5293 41.6414 54.8455 41.3397 54.6099 40.7319L49.6101 27.8347Z" fill="white"/>
<path d="M58.9601 29.0818C59.4266 27.866 60.7924 27.2609 62.0064 27.7323V27.7323L56.9566 40.8936C56.7225 41.5039 56.0368 41.8077 55.4274 41.5711V41.5711C54.8214 41.3358 54.5198 40.6548 54.7526 40.0479L58.9601 29.0818Z" fill="white"/>
<path d="M69.7285 6.44029L69.7347 6.71204V6.71774C69.7473 6.99825 69.7801 7.27824 69.8297 7.55769L69.8288 7.55864C69.8858 7.94171 70.0148 8.29154 70.2159 8.60383L70.2203 8.61048L70.2257 8.61713L70.2976 8.71405L70.3038 8.72355C70.4141 8.8585 70.5468 8.97316 70.698 9.07131C70.5037 9.20071 70.3411 9.36062 70.2159 9.55495C70.0158 9.85238 69.8881 10.1916 69.8306 10.5697C69.7629 10.9339 69.7285 11.3055 69.7285 11.6833V15.2531L69.7187 15.5648C69.7002 15.8339 69.6567 16.028 69.598 16.1586C69.5121 16.3349 69.3767 16.453 69.1745 16.5159C68.944 16.5875 68.6304 16.6271 68.2273 16.6271H68V18.059H68.7209L69.0902 18.0447L69.0991 18.0438C69.9682 17.9762 70.6409 17.6689 71.0673 17.0812C71.4779 16.5272 71.6978 15.8014 71.7464 14.9244V14.9177L71.7571 14.5462V11.2405C71.7571 10.8982 71.8201 10.5835 71.9444 10.2932L72.0048 10.1631C72.1239 9.90701 72.3525 9.75448 72.7727 9.75448H73V8.36344H72.7727C72.4303 8.36344 72.2344 8.27091 72.1264 8.14205L72.1202 8.1354C71.9722 7.97112 71.875 7.7672 71.8308 7.51589C71.7815 7.22183 71.7571 6.93519 71.7571 6.65598V3.57934C71.7571 2.96198 71.6852 2.41393 71.5369 1.93934L71.5343 1.93269L71.4703 1.74646L71.4668 1.73601L71.3816 1.53837C71.1685 1.0913 70.8598 0.740541 70.4574 0.493187C70.043 0.233879 69.5269 0.0961552 68.9215 0.0656111H68.9162L68.6596 0.05896H68V1.49086H68.2273C68.696 1.49086 69.0266 1.53637 69.2358 1.61534L69.3068 1.64764L69.4062 1.7094C69.4973 1.77937 69.5637 1.8735 69.6078 1.9973L69.6353 2.08092L69.6344 2.08187C69.6946 2.29714 69.7285 2.60537 69.7285 3.01684V6.44029Z" fill="#F09412"/>
<path d="M41.2715 6.44029L41.2653 6.71204V6.71774C41.2527 6.99825 41.2199 7.27824 41.1703 7.55769L41.1712 7.55864C41.1142 7.94171 40.9852 8.29154 40.7841 8.60383L40.7797 8.61048L40.7743 8.61713L40.7024 8.71405L40.6962 8.72355C40.5859 8.8585 40.4532 8.97316 40.302 9.07131C40.4963 9.20071 40.6589 9.36062 40.7841 9.55495C40.9842 9.85238 41.1119 10.1916 41.1694 10.5697C41.2371 10.9339 41.2715 11.3055 41.2715 11.6833V15.2531L41.2813 15.5648C41.2998 15.8339 41.3433 16.028 41.402 16.1586C41.4879 16.3349 41.6233 16.453 41.8255 16.5159C42.056 16.5875 42.3696 16.6271 42.7727 16.6271H43V18.059H42.2791L41.9098 18.0447L41.9009 18.0438C41.0318 17.9762 40.3591 17.6689 39.9327 17.0812C39.5221 16.5272 39.3022 15.8014 39.2536 14.9244V14.9177L39.2429 14.5462V11.2405C39.2429 10.8982 39.1799 10.5835 39.0556 10.2932L38.9952 10.1631C38.8761 9.90701 38.6475 9.75448 38.2273 9.75448H38V8.36344H38.2273C38.5697 8.36344 38.7656 8.27091 38.8736 8.14205L38.8798 8.1354C39.0278 7.97112 39.125 7.7672 39.1692 7.51589C39.2185 7.22183 39.2429 6.93519 39.2429 6.65598V3.57934C39.2429 2.96198 39.3148 2.41393 39.4631 1.93934L39.4657 1.93269L39.5297 1.74646L39.5332 1.73601L39.6184 1.53837C39.8315 1.0913 40.1402 0.740541 40.5426 0.493187C40.957 0.233879 41.4731 0.0961552 42.0785 0.0656111H42.0838L42.3404 0.05896H43V1.49086H42.7727C42.304 1.49086 41.9734 1.53637 41.7642 1.61534L41.6932 1.64764L41.5938 1.7094C41.5027 1.77937 41.4363 1.8735 41.3922 1.9973L41.3647 2.08092L41.3656 2.08187C41.3054 2.29714 41.2715 2.60537 41.2715 3.01684V6.44029Z" fill="#F09412"/>
<path d="M53 11.059C53 12.7158 51.6569 14.059 50 14.059C48.3431 14.059 47 12.7158 47 11.059C47 9.40211 48.3431 8.05896 50 8.05896C51.6569 8.05896 53 9.40211 53 11.059Z" fill="#F09412"/>
<path d="M48.991 4.05896V4.05896C49.6722 5.33474 48.7592 6.39544 47.5336 7.16338C46.2466 7.96984 45.3931 9.38427 45.3931 10.9944C45.3931 13.5026 47.4642 15.5359 50.0189 15.5359C50.8985 15.5359 51.7206 15.2949 52.4206 14.8764C53.4667 14.2511 55.162 14.1436 55.8232 15.1673V15.1673C54.5138 16.9199 52.4025 18.059 50.0189 18.059C46.0449 18.059 42.8232 14.8961 42.8232 10.9944C42.8232 7.5532 45.3295 4.68761 48.6476 4.05896H48.991Z" fill="white"/>
<path d="M63.5896 1.94044C64.1153 0.56547 65.5563 -0.229927 66.9997 0.0586086L60.5486 17.2822C60.547 17.2865 60.5444 17.2907 60.5427 17.2949C60.5219 17.3617 60.5111 17.4026 60.5076 17.4092C60.2706 17.8134 59.834 18.0563 59.3689 18.0586C58.9035 18.0607 58.4652 17.821 58.2244 17.419C57.8847 16.8517 57.3829 15.8007 56.8113 14.6133C56.222 13.3891 55.5197 11.9378 54.7439 10.4707C53.7993 8.68431 53.0293 7.74769 52.4451 7.25001C51.9725 6.84761 51.6064 6.71778 51.3035 6.66212L51.1414 6.63771L51.1296 6.63576L51.0466 6.62111C51.039 6.61975 51.0308 6.61794 51.0232 6.61623C50.3808 6.47067 49.9215 5.86648 50.0115 5.18751C50.1014 4.51115 50.6992 4.0426 51.3552 4.05959L51.3796 4.06154L51.4636 4.0674L51.4949 4.0713L51.6316 4.08986L51.6384 4.09084C52.4086 4.20904 53.264 4.51598 54.1775 5.29396C55.111 6.08915 56.0644 7.34143 57.0886 9.27834C57.8813 10.7775 58.5948 12.2534 59.1804 13.4697L63.5896 1.94044Z" fill="#F09412"/>
</svg>
